<?xml version="1.0" encoding="UTF-8" standalone="no"?>
<!DOCTYPE svg PUBLIC "-//W3C//DTD SVG 1.1//EN" "http://www.w3.org/Graphics/SVG/1.1/DTD/svg11.dtd">
<svg width="100%" height="100%" viewBox="0 0 47 59" version="1.1" xmlns="http://www.w3.org/2000/svg" xmlns:xlink="http://www.w3.org/1999/xlink" xml:space="preserve" xmlns:serif="http://www.serif.com/" style="fill-rule:evenodd;clip-rule:evenodd;stroke-linejoin:round;stroke-miterlimit:2;">
    <g transform="matrix(1,0,0,1,-26.6588,-23.4505)">
        <path d="M30.83,81.667L69.17,81.667C69.723,81.667 70.17,81.22 70.17,80.667L70.17,71.437C70.17,66.295 65.987,62.112 60.846,62.112L39.154,62.112C34.013,62.112 29.83,66.295 29.83,71.437L29.83,80.667C29.83,81.22 30.277,81.667 30.83,81.667ZM31.83,71.437C31.83,67.398 35.115,64.112 39.154,64.112L60.846,64.112C64.885,64.112 68.17,67.398 68.17,71.437L68.17,79.667L31.83,79.667L31.83,71.437ZM60.749,46.439C60.749,40.512 55.927,35.69 50,35.69C44.073,35.69 39.251,40.512 39.251,46.439C39.251,52.366 44.073,57.188 50,57.188C55.927,57.188 60.749,52.366 60.749,46.439ZM41.251,46.439C41.251,41.615 45.176,37.69 50,37.69C54.824,37.69 58.749,41.615 58.749,46.439C58.749,51.263 54.824,55.188 50,55.188C45.176,55.188 41.251,51.263 41.251,46.439ZM67.648,47.93L72.203,47.93C72.831,47.93 73.341,47.421 73.341,46.792C73.341,46.163 72.831,45.653 72.203,45.653L67.648,45.653C67.019,45.653 66.51,46.163 66.51,46.792C66.51,47.421 67.019,47.93 67.648,47.93ZM27.797,47.93L32.352,47.93C32.981,47.93 33.49,47.421 33.49,46.792C33.49,46.163 32.981,45.653 32.352,45.653L27.797,45.653C27.169,45.653 26.659,46.163 26.659,46.792C26.659,47.421 27.169,47.93 27.797,47.93ZM36.716,35.117C36.938,35.34 37.229,35.451 37.521,35.451C37.812,35.451 38.104,35.34 38.326,35.117C38.771,34.673 38.771,33.952 38.326,33.507L35.105,30.287C34.661,29.842 33.94,29.842 33.495,30.287C33.051,30.731 33.051,31.452 33.495,31.897L36.716,35.117ZM62.479,35.451C62.77,35.451 63.062,35.339 63.284,35.117L66.504,31.897C66.949,31.452 66.949,30.731 66.504,30.287C66.06,29.842 65.339,29.842 64.894,30.287L61.674,33.507C61.229,33.951 61.229,34.672 61.674,35.117C61.896,35.339 62.188,35.451 62.479,35.451ZM50,30.282C50.629,30.282 51.139,29.772 51.139,29.144L51.139,24.589C51.139,23.96 50.629,23.451 50,23.451C49.371,23.451 48.861,23.96 48.861,24.589L48.861,29.144C48.861,29.772 49.371,30.282 50,30.282Z" style="fill:rgb(0,146,173);fill-rule:nonzero;"/>
    </g>
</svg>
