<?xml version="1.0" encoding="UTF-8" standalone="no"?>
<!DOCTYPE svg PUBLIC "-//W3C//DTD SVG 1.1//EN" "http://www.w3.org/Graphics/SVG/1.1/DTD/svg11.dtd">
<svg width="100%" height="100%" viewBox="0 0 48 48" version="1.1" xmlns="http://www.w3.org/2000/svg" xmlns:xlink="http://www.w3.org/1999/xlink" xml:space="preserve" xmlns:serif="http://www.serif.com/" style="fill-rule:evenodd;clip-rule:evenodd;stroke-linejoin:round;stroke-miterlimit:2;">
    <g transform="matrix(1,0,0,1,-31.3068,-31.2139)">
        <g transform="matrix(1,0,0,1,29.3381,30.2139)">
            <path d="M44.25,1C43.039,1 41.859,1.496 40.938,2.406L40.906,2.406L39.5,3.781L33.25,10.031L2.969,10.031C2.414,10.031 1.969,10.48 1.969,11.031L1.969,47.031C1.969,47.582 2.414,48.031 2.969,48.031L38.969,48.031C39.523,48.031 39.969,47.582 39.969,47.031L39.969,16.75L46.906,9.813C47.254,9.465 47.594,9.094 47.594,9.094C49.441,7.246 49.469,4.25 47.625,2.406L47.625,2.375C46.699,1.453 45.469,1 44.25,1ZM44.25,3C44.949,3 45.645,3.27 46.188,3.813C47.262,4.887 47.25,6.574 46.188,7.656L42.344,3.813C42.883,3.285 43.559,3 44.25,3ZM40.906,5.188L44.813,9.094L22.219,31.656L18.344,27.781L40.906,5.188ZM16.938,29.219L20.781,33.063L15.969,34.031L16.938,29.219Z" style="fill:rgb(91,107,152);fill-rule:nonzero;"/>
        </g>
    </g>
</svg>
