<?xml version="1.0" encoding="UTF-8" standalone="no"?>
<!DOCTYPE svg PUBLIC "-//W3C//DTD SVG 1.1//EN" "http://www.w3.org/Graphics/SVG/1.1/DTD/svg11.dtd">
<svg width="100%" height="100%" viewBox="0 0 80 80" version="1.1" xmlns="http://www.w3.org/2000/svg" xmlns:xlink="http://www.w3.org/1999/xlink" xml:space="preserve" xmlns:serif="http://www.serif.com/" style="fill-rule:evenodd;clip-rule:evenodd;stroke-linejoin:round;stroke-miterlimit:2;">
    <g transform="matrix(1,0,0,1,-10,-22.5034)">
        <path d="M10,62.5C10,84.554 27.944,102.497 50,102.497C54.987,102.497 59.854,101.59 64.463,99.801C64.979,99.602 65.233,99.022 65.034,98.507C64.833,97.993 64.252,97.735 63.74,97.937C59.361,99.635 54.738,100.497 50,100.497C29.047,100.497 12,83.451 12,62.5C12,50.883 17.36,39.895 26.423,32.709L26.423,39.388C26.423,39.94 26.87,40.388 27.423,40.388C27.976,40.388 28.423,39.94 28.423,39.388L28.423,30.675C28.423,30.659 28.415,30.646 28.414,30.631C28.408,30.538 28.391,30.449 28.359,30.36C28.341,30.306 28.318,30.257 28.292,30.208C28.274,30.176 28.27,30.141 28.249,30.111C28.232,30.088 28.207,30.077 28.189,30.055C28.136,29.989 28.076,29.936 28.008,29.885C27.977,29.864 27.949,29.842 27.917,29.824C27.829,29.773 27.735,29.74 27.633,29.717C27.613,29.713 27.595,29.708 27.576,29.706C27.524,29.697 27.477,29.675 27.423,29.675L18.709,29.675C18.156,29.675 17.709,30.123 17.709,30.675C17.709,31.227 18.156,31.675 18.709,31.675L24.53,31.675C15.388,39.243 10,50.555 10,62.5ZM50,22.503C45.339,22.503 40.771,23.298 36.426,24.866C35.906,25.053 35.637,25.626 35.824,26.146C36.011,26.665 36.587,26.933 37.104,26.748C41.231,25.258 45.57,24.503 50,24.503C70.953,24.503 88,41.549 88,62.5C88,73.8 82.879,84.594 74.21,91.78L74.21,85.164C74.21,84.612 73.763,84.164 73.21,84.164C72.657,84.164 72.21,84.612 72.21,85.164L72.21,93.689C72.201,93.744 72.21,93.799 72.21,93.855L72.21,93.877C72.21,93.88 72.211,93.881 72.211,93.884C72.214,93.996 72.236,94.104 72.278,94.212C72.293,94.257 72.314,94.296 72.336,94.337C72.357,94.374 72.363,94.415 72.389,94.45C72.403,94.469 72.426,94.476 72.442,94.494C72.526,94.599 72.627,94.686 72.748,94.75C72.749,94.75 72.749,94.751 72.75,94.752C72.89,94.825 73.041,94.877 73.21,94.877L81.923,94.877C82.476,94.877 82.923,94.43 82.923,93.877C82.923,93.325 82.476,92.877 81.923,92.877L76.002,92.877C84.809,85.317 90,74.167 90,62.5C90,40.446 72.056,22.503 50,22.503ZM30.83,81.667L69.17,81.667C69.723,81.667 70.17,81.22 70.17,80.667L70.17,71.437C70.17,66.295 65.987,62.112 60.846,62.112L39.154,62.112C34.013,62.112 29.83,66.295 29.83,71.437L29.83,80.667C29.83,81.22 30.277,81.667 30.83,81.667ZM31.83,71.437C31.83,67.398 35.115,64.112 39.154,64.112L60.846,64.112C64.885,64.112 68.17,67.398 68.17,71.437L68.17,79.667L31.83,79.667L31.83,71.437ZM60.749,46.439C60.749,40.512 55.927,35.69 50,35.69C44.073,35.69 39.251,40.512 39.251,46.439C39.251,52.366 44.073,57.188 50,57.188C55.927,57.188 60.749,52.366 60.749,46.439ZM41.251,46.439C41.251,41.615 45.176,37.69 50,37.69C54.824,37.69 58.749,41.615 58.749,46.439C58.749,51.263 54.824,55.188 50,55.188C45.176,55.188 41.251,51.263 41.251,46.439Z" style="fill:rgb(0,152,16);fill-rule:nonzero;"/>
    </g>
</svg>
