<?xml version="1.0" encoding="UTF-8" standalone="no"?>
<!DOCTYPE svg PUBLIC "-//W3C//DTD SVG 1.1//EN" "http://www.w3.org/Graphics/SVG/1.1/DTD/svg11.dtd">
<svg width="100%" height="100%" viewBox="0 0 56 52" version="1.1" xmlns="http://www.w3.org/2000/svg" xmlns:xlink="http://www.w3.org/1999/xlink" xml:space="preserve" xmlns:serif="http://www.serif.com/" style="fill-rule:evenodd;clip-rule:evenodd;stroke-linejoin:round;stroke-miterlimit:2;">
    <g transform="matrix(1,0,0,1,-22.2257,-36.6863)">
        <g transform="matrix(1.39436,0,0,1.32378,16.5785,31.3912)">
            <path d="M26,35.9L26,33L19,38L26,43L26,39.9L38.1,39.9C40.2,39.9 42.1,38.8 43.1,37C44.1,35.2 44.2,33 43.1,31.2L41,27.3L37.5,29.3L39.7,33.2C40.2,34 39.8,34.8 39.7,35C39.5,35.3 39.1,35.9 38.1,35.9L26,35.9ZM10.449,21.34L4.8,31.4C3.8,33.2 3.8,35.4 4.8,37.2C5.8,39 7.7,40.1 9.8,40.1L15,40.1L15,36L9.9,36C9,36 8.5,35.4 8.3,35.1C8.1,34.8 7.8,34.1 8.3,33.3L13.925,23.361L16.4,24.8L15.6,16.3L7.8,19.8L10.449,21.34ZM32.192,19.793L29.6,21.3L37.4,24.8L38.2,16.3L35.677,17.767L29.8,7.3C28.6,5.3 26.4,4 24,4C21.6,4 19.4,5.3 18.2,7.4L15.9,11.4L19.5,13.4L21.8,9.3C22.2,8.5 23,8 24,8C25,8 25.8,8.5 26.3,9.3L32.192,19.793Z" style="fill:rgb(76,175,80);fill-rule:nonzero;"/>
        </g>
    </g>
</svg>
